# Blender v2.82 (sub 7) OBJ File: 'ISS_Interior_USOnly_TexturesPacked.blend'
# www.blender.org
mtllib Bag1.mtl
o PMM.CTB_Bags.002_Untitled.085
v -0.037382 1.771822 -2.106124
v -0.462694 0.251402 -2.254805
v -0.862206 -1.283047 -2.277729
v 1.679693 1.288711 -1.759079
v 1.303637 -0.245564 -1.897805
v 0.854872 -1.766158 -1.930685
v -2.493402 -0.765582 -2.539221
v -2.156775 0.724110 -2.527146
v -1.699867 2.173405 -2.374126
v -2.875570 -0.889952 -1.284121
v -2.509371 0.746308 -1.227606
v -2.003223 2.340938 -1.102628
v -3.148096 -0.891957 0.061478
v -2.789717 0.744247 0.156590
v -2.275749 2.338932 0.242970
v -3.284483 -0.771403 1.366722
v -2.970551 0.718122 1.490841
v -2.490950 2.167584 1.531817
v -1.679789 -1.289063 1.759060
v -1.303728 0.245214 1.897785
v -0.854963 1.765806 1.930666
v 0.037291 -1.772173 2.106104
v 0.462603 -0.251755 2.254785
v 0.862112 1.282695 2.277709
v 1.699776 -2.173756 2.374106
v 2.156683 -0.724460 2.527126
v 2.493311 0.765231 2.539203
v 2.003128 -2.341288 1.102607
v 2.509279 -0.746661 1.227586
v 2.875479 0.889601 1.284101
v 2.490856 -2.167935 -1.531838
v 2.275656 -2.339283 -0.242990
v 2.970457 -0.718475 -1.490861
v 2.789623 -0.744598 -0.156610
v 3.148005 0.891606 -0.061495
v 3.284391 0.771050 -1.366741
v 2.417574 0.960046 2.410051
v 0.917440 1.398421 2.165054
v -0.799631 1.881531 1.818009
v -2.286953 2.283697 1.459204
v 2.756435 1.054585 1.260236
v 1.245348 1.553749 0.988780
v -0.554697 2.060205 0.624966
v -2.090712 2.418363 0.280564
v 3.028963 1.056591 -0.085358
v 3.164261 0.965540 -1.276680
v 1.531046 1.555853 -0.421838
v 1.686762 1.404080 -1.633441
v -0.030313 1.887192 -1.980485
v -0.269001 2.062305 -0.785650
v -1.818186 2.420367 -1.065033
v -1.540270 2.289192 -2.227527
v -2.417665 -0.960400 -2.410071
v -2.756527 -1.054938 -1.260256
v -3.029055 -1.056942 0.085341
v -3.164352 -0.965893 1.276660
v -0.917536 -1.398773 -2.165075
v -1.244633 -1.551105 -0.988632
v -1.530329 -1.553207 0.421986
v -1.686853 -1.404433 1.633421
v 2.286861 -2.284048 -1.459224
v 0.799541 -1.881884 -1.818032
v 2.090620 -2.418714 -0.280584
v 0.555412 -2.057560 -0.624819
v 1.818092 -2.420720 1.065013
v 0.269718 -2.059660 0.785799
v 0.030224 -1.887543 1.980465
v 1.540178 -2.289543 2.227507
vt 0.401238 0.733849
vt 0.400099 0.688928
vt 0.466165 0.691641
vt 0.472800 0.734552
vt 0.700958 0.684103
vt 0.712835 0.690761
vt 0.707694 0.734755
vt 0.696527 0.734503
vt 0.781111 0.676092
vt 0.782504 0.684066
vt 0.707204 0.787234
vt 0.696030 0.787397
vt 0.711378 0.831353
vt 0.699333 0.837917
vt 0.781020 0.838670
vt 0.779472 0.846655
vt 0.869933 0.675406
vt 0.868970 0.683286
vt 0.867769 0.840063
vt 0.868618 0.847991
vt 0.938700 0.688066
vt 0.949807 0.681028
vt 0.961211 0.732583
vt 0.949264 0.733135
vt 0.961211 0.790900
vt 0.949155 0.790311
vt 0.938014 0.835651
vt 0.949115 0.842803
vt 0.245099 0.835272
vt 0.256327 0.828084
vt 0.322322 0.830475
vt 0.321716 0.837616
vt 0.238161 0.785432
vt 0.249118 0.785086
vt 0.398945 0.830541
vt 0.399534 0.837726
vt 0.464980 0.828261
vt 0.476127 0.835448
vt 0.472398 0.785472
vt 0.483297 0.785862
vt 0.238311 0.733442
vt 0.249290 0.733847
vt 0.483699 0.734250
vt 0.257149 0.690860
vt 0.246011 0.683599
vt 0.322857 0.681621
vt 0.323394 0.688782
vt 0.400771 0.681738
vt 0.477467 0.684512
vt 0.129878 0.786946
vt 0.133172 0.839882
vt 0.020077 0.841435
vt 0.014459 0.787083
vt 0.130647 0.731207
vt 0.015452 0.729919
vt 0.134802 0.678424
vt 0.022263 0.675884
vt 0.318074 0.910263
vt 0.236856 0.907632
vt 0.317034 0.988637
vt 0.233733 0.980380
vt 0.403253 0.909915
vt 0.404816 0.988604
vt 0.484361 0.907245
vt 0.488044 0.980024
vt 0.588653 0.787749
vt 0.587377 0.839398
vt 0.589650 0.733210
vt 0.589370 0.681532
vt 0.405406 0.609475
vt 0.486565 0.612601
vt 0.408104 0.530870
vt 0.491171 0.539894
vt 0.320025 0.608769
vt 0.320120 0.529974
vt 0.238491 0.610988
vt 0.236262 0.537825
vt 0.783239 0.733470
vt 0.782591 0.789245
vt 0.870499 0.733009
vt 0.869921 0.790158
vt 0.320785 0.785556
vt 0.400969 0.785628
vt 0.321227 0.733725
vn -0.2547 -0.9669 0.0126
vn 0.0837 -0.9933 0.0796
vn -0.0402 -0.9166 0.3977
vn -0.3036 -0.8623 0.4053
vn 0.5750 0.2076 0.7913
vn 0.4142 0.7654 0.4925
vn 0.1587 0.8499 0.5023
vn -0.0618 0.3650 0.9289
vn 0.9482 0.2011 0.2459
vn 0.5691 0.8021 0.1809
vn 0.1210 0.8606 0.4947
vn -0.1033 0.3767 0.9206
vn -0.1186 0.9153 0.3849
vn -0.6330 0.5476 0.5471
vn -0.1094 0.9930 0.0438
vn -0.7327 0.6740 -0.0938
vn 0.9691 0.2012 0.1429
vn 0.5942 0.8023 0.0570
vn -0.0844 0.9932 -0.0801
vn -0.7119 0.6742 -0.1968
vn 0.5727 0.7665 -0.2904
vn 0.8375 0.2096 -0.5046
vn 0.3043 0.3677 -0.8787
vn 0.3412 0.8513 -0.3985
vn 0.2628 0.3794 -0.8871
vn 0.3034 0.8619 -0.4062
vn 0.0399 0.9165 -0.3981
vn -0.3706 0.5495 -0.7488
vn -0.5750 -0.2076 -0.7913
vn -0.4140 -0.7657 -0.4922
vn -0.5686 -0.8025 -0.1805
vn -0.9482 -0.2011 -0.2459
vn 0.0618 -0.3650 -0.9289
vn -0.1588 -0.8505 -0.5015
vn -0.5936 -0.8027 -0.0573
vn -0.9691 -0.2012 -0.1429
vn -0.5725 -0.7668 0.2901
vn -0.8375 -0.2096 0.5046
vn -0.3409 -0.8518 0.3977
vn -0.3043 -0.3677 0.8787
vn 0.1033 -0.3767 -0.9206
vn -0.1215 -0.8609 -0.4939
vn -0.2628 -0.3794 0.8871
vn 0.1183 -0.9155 -0.3846
vn 0.6330 -0.5476 -0.5472
vn 0.7327 -0.6740 0.0938
vn 0.1087 -0.9931 -0.0436
vn 0.7119 -0.6742 0.1968
vn 0.3706 -0.5495 0.7488
vn 0.1797 0.0067 -0.9837
vn -0.5183 0.1868 -0.8345
vn 0.2172 -0.0038 -0.9761
vn 0.8023 -0.1847 -0.5676
vn -0.9373 0.2657 -0.2255
vn -0.9513 0.2656 -0.1561
vn -0.8023 0.1847 0.5676
vn -0.2172 0.0038 0.9761
vn -0.1797 -0.0067 0.9837
vn 0.5183 -0.1868 0.8345
vn 0.9373 -0.2657 0.2255
vn 0.9513 -0.2656 0.1561
vn 0.2651 0.9565 0.1217
vn 0.2283 0.9669 0.1143
vn 0.2911 0.9567 -0.0062
vn 0.2542 0.9670 -0.0136
vn -0.2647 -0.9568 -0.1206
vn -0.2902 -0.9569 0.0054
vn -0.2292 -0.9667 -0.1135
usemtl Boxes
s 1
f 66/1/1 65/2/2 68/3/3 67/4/4
f 27/5/5 37/6/6 38/7/7 24/8/8
f 37/6/6 27/5/5 30/9/9 41/10/10
f 24/8/8 38/7/7 39/11/11 21/12/12
f 40/13/13 18/14/14 21/12/12 39/11/11
f 18/14/14 40/13/13 44/15/15 15/16/16
f 35/17/17 45/18/18 41/10/10 30/9/9
f 15/16/16 44/15/15 51/19/19 12/20/20
f 46/21/21 36/22/22 4/23/23 48/24/24
f 36/22/22 46/21/21 45/18/18 35/17/17
f 48/24/24 4/23/23 1/25/25 49/26/26
f 52/27/27 9/28/28 12/20/20 51/19/19
f 9/28/28 52/27/27 49/26/26 1/25/25
f 7/29/29 53/30/30 54/31/31 10/32/32
f 53/30/30 7/29/29 3/33/33 57/34/34
f 55/35/35 13/36/36 10/32/32 54/31/31
f 56/37/37 16/38/38 13/36/36 55/35/35
f 16/38/38 56/37/37 60/39/39 19/40/40
f 6/41/41 62/42/42 57/34/34 3/33/33
f 67/4/4 22/43/43 19/40/40 60/39/39
f 61/44/44 31/45/45 32/46/46 63/47/47
f 31/45/45 61/44/44 62/42/42 6/41/41
f 63/47/47 32/46/46 28/48/48 65/2/2
f 68/3/3 25/49/49 22/43/43 67/4/4
f 25/49/49 68/3/3 65/2/2 28/48/48
f 2/50/50 8/51/51 9/52/28 1/53/25
f 8/51/51 2/50/50 3/33/33 7/29/29
f 5/54/52 2/50/50 1/53/25 4/55/23
f 2/50/50 5/54/52 6/41/41 3/33/33
f 33/56/53 5/54/52 4/55/23 36/57/22
f 5/54/52 33/56/53 31/45/45 6/41/41
f 11/58/54 8/59/51 7/29/29 10/32/32
f 8/59/51 11/58/54 12/60/20 9/61/28
f 14/62/55 11/58/54 10/32/32 13/36/36
f 11/58/54 14/62/55 15/63/16 12/60/20
f 17/64/56 14/62/55 13/36/36 16/38/38
f 14/62/55 17/64/56 18/65/14 15/63/16
f 20/66/57 17/67/56 16/38/38 19/40/40
f 17/67/56 20/66/57 21/12/12 18/14/14
f 23/68/58 20/66/57 19/40/40 22/43/43
f 20/66/57 23/68/58 24/8/8 21/12/12
f 26/69/59 23/68/58 22/43/43 25/49/49
f 23/68/58 26/69/59 27/5/5 24/8/8
f 29/70/60 26/71/59 25/49/49 28/48/48
f 26/71/59 29/70/60 30/72/9 27/73/5
f 34/74/61 29/70/60 28/48/48 32/46/46
f 29/70/60 34/74/61 35/75/17 30/72/9
f 33/76/53 34/74/61 32/46/46 31/45/45
f 34/74/61 33/76/53 36/77/22 35/75/17
f 41/10/10 42/78/62 38/7/7 37/6/6
f 42/78/62 43/79/63 39/11/11 38/7/7
f 43/79/63 44/15/15 40/13/13 39/11/11
f 47/80/64 42/78/62 41/10/10 45/18/18
f 43/79/63 42/78/62 47/80/64 50/81/65
f 43/79/63 50/81/65 51/19/19 44/15/15
f 47/80/64 45/18/18 46/21/21 48/24/24
f 50/81/65 47/80/64 48/24/24 49/26/26
f 50/81/65 49/26/26 52/27/27 51/19/19
f 57/34/34 58/82/66 54/31/31 53/30/30
f 58/82/66 59/83/67 55/35/35 54/31/31
f 59/83/67 60/39/39 56/37/37 55/35/35
f 57/34/34 62/42/42 64/84/68 58/82/66
f 59/83/67 58/82/66 64/84/68 66/1/1
f 59/83/67 66/1/1 67/4/4 60/39/39
f 61/44/44 63/47/47 64/84/68 62/42/42
f 63/47/47 65/2/2 66/1/1 64/84/68
